<?xml version="1.0" encoding="utf-8"?>
<!-- Generator: Adobe Illustrator 15.0.0, SVG Export Plug-In . SVG Version: 6.00 Build 0)  -->
<!DOCTYPE svg PUBLIC "-//W3C//DTD SVG 1.1//EN" "http://www.w3.org/Graphics/SVG/1.1/DTD/svg11.dtd">
<svg version="1.1" id="图层_1" xmlns="http://www.w3.org/2000/svg" xmlns:xlink="http://www.w3.org/1999/xlink" x="0px" y="0px"
	 width="1024px" height="1024px" viewBox="0 0 1024 1024" enable-background="new 0 0 1024 1024" xml:space="preserve">
<g>
	<path fill="#666666" d="M39.8,910.56l0.12,0.55l1.4-0.24c0.07,0,0.18,0.12,0.31,0.12c2.01,0,4.03-0.49,5.74-1.22l259.87-46.75
		v-0.18c9.09-1.71,17.69-6.05,24.78-13.12l571.55-571.55c18.61-18.62,18.61-48.65,0-67.26L718.71,26.04
		C709.37,16.7,697.22,12,685.03,12c-12.14,0-24.29,4.7-33.57,14.04L79.84,597.59c-6.96,6.97-11.35,15.57-13.07,24.48h-0.24
		L31.94,864.3l-0.49,0.06l0.3,1.34l-3.6,24.84c-0.74,1.76-1.16,3.72-1.16,5.68C26.99,903.67,32.6,909.65,39.8,910.56z M685.03,80.73
		l163.8,163.81L315.84,777.58L152.1,613.77L685.03,80.73z M122.44,672.48L258.3,808.33L99,837.02L122.44,672.48z"/>
	<path fill="#666666" d="M980.72,949.5H43.28c-17.28,0-31.25,13.97-31.25,31.24c0,17.27,13.97,31.26,31.25,31.26h937.43
		c17.27,0,31.25-13.98,31.25-31.26C1011.97,963.48,997.99,949.5,980.72,949.5z"/>
</g>
</svg>
