<?xml version="1.0" encoding="utf-8"?>
<!-- Generator: Adobe Illustrator 15.0.0, SVG Export Plug-In . SVG Version: 6.00 Build 0)  -->
<!DOCTYPE svg PUBLIC "-//W3C//DTD SVG 1.1//EN" "http://www.w3.org/Graphics/SVG/1.1/DTD/svg11.dtd">
<svg version="1.1" id="图层_1" xmlns="http://www.w3.org/2000/svg" xmlns:xlink="http://www.w3.org/1999/xlink" x="0px" y="0px"
	 width="1024px" height="1024px" viewBox="0 0 1024 1024" enable-background="new 0 0 1024 1024" xml:space="preserve">
<path fill="#666666" d="M866,791.8c-8.99,0.58-10.99-1.42-9.92-9.92l0.03-158h-64.2l0.02,158c-0.42,9.5-3.92,10-10.66,9.93
	l-157.26-0.02v64.1l157.26,0.25c11.24,0.15,10.24,2.15,10.66,9.65L791.91,1024h64.19l-0.02-158.21c-0.07-7.5,1.43-10.5,9.92-9.66
	l158-0.25v-64.1L866,791.8z"/>
<path fill="#666666" d="M955.87,75.74H44.12c-7.9,0-14.12,6.38-14.12,14.13V720.5c0,7.9,6.38,14.13,14.12,14.13H318.2v121.66H187.94
	c-3.79,0-6.99,23.04-6.99,26.99c0,3.8,3.04,26.99,6.99,26.99H514.9c3.95,0,6.99-23.04,6.99-26.99c0-3.79-3.04-26.99-6.99-26.99
	H360.42V734.63h199.17v-0.13h42.21v0.13h23.27v-48.1H78.24V123.84h112.74c-0.9,1.01-1.22,2.18-1.22,3.44v69.41
	c0,3.79,3.04,6.98,6.98,6.98h124.98c3.95,0,6.99-3.04,6.99-6.98v-69.41c0-1.24-0.33-2.42-1.25-3.44h104.3
	c-0.9,1.01-1.23,2.18-1.23,3.44v69.41c0,3.79,3.04,6.98,6.98,6.98h124.99c3.79,0,6.99-3.04,6.99-6.98v-69.41
	c0-1.24-0.33-2.42-1.25-3.44h104.13c-0.9,1.01-1.23,2.18-1.23,3.44v69.41c0,3.79,3.04,6.98,6.99,6.98h124.98
	c3.94,0,6.98-3.04,6.98-6.98v-69.41c0-1.24-0.33-2.42-1.25-3.44h112.92v419.99c0,0,41.66-0.18,48.25-0.18V89.87
	C970,81.97,963.62,75.74,955.87,75.74z M304.74,169.69h-90.85v-45.42h90.85V169.69z M545.35,169.69h-90.86v-45.42h90.86V169.69z
	 M786.12,169.69h-90.86v-45.42h90.86V169.69z"/>
<path fill="#666666" d="M762.79,531.03c-17.47,0-26.91-6.88-28.82-20.57h-49.36c1.63,33.76,27.62,51.5,77.95,53.39
	c49.36-2.83,75.84-21.04,79.36-54.81c0-26.45-22.45-45.6-67.09-57.4c-21.98-6.37-32.81-13.24-32.81-20.55
	c-0.95-11.1,5.91-16.54,20.54-16.54c14.39,0.95,22.18,6.85,23.17,17.73h47.95c-2.87-33.79-26.69-51.25-70.89-51.75
	c-48.44,3.55-73.46,21.03-75.35,51.97c-1.91,30.94,19.6,50.1,64.22,57.43c22.95,4.72,34.77,12.03,35.69,21.96
	C786.43,524.62,778.41,531.03,762.79,531.03z"/>
<path fill="#666666" d="M572.81,548.49c0.92,5.42,1.4,9.44,1.4,12.27h53.38c-1.89-11.08-2.34-22.9-1.41-35.65V307.54h-53.37v97.31
	c-12.76-15.59-28.81-23.84-47.74-24.57c-52.19,3.55-79.37,34.74-82.19,93.09c3.53,58.35,29.05,88.36,76.55,90.21
	c24.57-0.92,42.53-10.15,53.38-27.4C571.83,539.75,571.83,543.99,572.81,548.49z M535.7,530.75c-26.46,0.97-39.2-18.18-38.24-57.38
	c-0.95-39.45,11.78-59.06,38.24-58.83c21.76,1.9,34.01,21.5,36.89,58.83C569.99,510.69,557.67,529.83,535.7,530.75z"/>
<path fill="#666666" d="M251.57,307.54l-91.65,253.23h51.97l19.15-53.38h99.91l19.13,53.38h54.81l-89.07-253.23H251.57z
	 M244.73,465.1l36.84-108.2h1.44l34.24,108.2H244.73z"/>
</svg>
