<?xml version="1.0" encoding="utf-8"?>
<!-- Generator: Adobe Illustrator 15.0.0, SVG Export Plug-In . SVG Version: 6.00 Build 0)  -->
<!DOCTYPE svg PUBLIC "-//W3C//DTD SVG 1.1//EN" "http://www.w3.org/Graphics/SVG/1.1/DTD/svg11.dtd">
<svg version="1.1" id="图层_1" xmlns="http://www.w3.org/2000/svg" xmlns:xlink="http://www.w3.org/1999/xlink" x="0px" y="0px"  width="1024px" height="1024px" viewBox="0 0 1024 1024" enable-background="new 0 0 1024 1024" xml:space="preserve">
<path fill="#666666" d="M217,422.05h500v50H217V422.05z"/><path fill="#666666" d="M217,272h350v50H217V272z"/><path fill="#666666" d="M217,574.5h350v50H217V574.5z"/><path fill="#666666" d="M761.93,865.79L761.91,1024h64.19l-0.02-158.21c-0.07-7.5,1.43-10.5,9.92-9.66l158-0.25v-64.1l-158,0.02 c-8.99,0.58-10.99-1.42-9.92-9.92l0.03-158h-64.2l0.02,158c-0.42,9.5-3.92,10-10.66,9.93l-157.26-0.02v64.1l157.26,0.25 C762.51,856.29,761.51,858.29,761.93,865.79z"/><path fill="#666666" d="M959.89,671.89V313.01c-3.6-32.56-31.22-57.15-63.98-56.95H703.95V56.43c-3.9-32.31-31.44-56.54-63.98-56.31 H137.69C99.85-2.09,67.17,26.32,64.11,64.1v865.79c3.07,37.78,35.74,66.2,73.58,64.11h498.62l0.28-64.11l0,0h-498.9 c-5.3,0-9.6-4.3-9.6-9.6V72.42c0-4.59,3.72-8.32,8.32-8.32h491.4c6.35-0.36,11.79,4.49,12.16,10.84c0,0.01,0,0.02,0,0.04v191.95 c3.69,31.97,31.88,55.37,63.98,53.11h180.44c6.35-0.36,11.79,4.49,12.16,10.84c0,0.01,0,0.02,0,0.04v340.65L959.89,671.89z"/></svg>
