<?xml version="1.0" encoding="utf-8"?>
<!-- Generator: Adobe Illustrator 15.0.0, SVG Export Plug-In . SVG Version: 6.00 Build 0)  -->
<!DOCTYPE svg PUBLIC "-//W3C//DTD SVG 1.1//EN" "http://www.w3.org/Graphics/SVG/1.1/DTD/svg11.dtd">
<svg version="1.1" id="图层_1" xmlns="http://www.w3.org/2000/svg" xmlns:xlink="http://www.w3.org/1999/xlink" x="0px" y="0px"  width="1024px" height="1024px" viewBox="0 0 1024 1024" enable-background="new 0 0 1024 1024" xml:space="preserve">
<path fill="#666666" d="M812.02,254h-150v300h150V254z"/>
<path fill="#666666" d="M572.02,224h-150v650h150V224z"/>
<path fill="#666666" d="M332.03,424h-150v450h150V424z"/>
<path fill="#666666" d="M793.93,863.79L793.91,1024h60.19l-0.02-160.21c-0.07-7.5,1.43-10.5,9.92-9.66l160-0.25v-60.1l-160,0.02 c-8.99,0.58-10.99-1.42-9.92-9.92l0.03-160h-60.2l0.02,160c-0.42,9.5-3.92,10-10.66,9.93l-159.26-0.02v60.1l159.26,0.25 C794.51,854.29,793.51,856.29,793.93,863.79z"/>
<path fill="#666666" d="M652.02,992h-570c-27.61,0-50-22.38-50-50l0,0V92c0-27.61,2.38-30,30-30c27.62,0,30,2.38,30,30v840h560 c27.62,0.02,29.99,2.42,29.96,30.04C681.96,989.62,679.61,991.98,652.02,992z"/>
</svg>
