<?xml version="1.0" encoding="utf-8"?>
<!-- Generator: Adobe Illustrator 15.0.0, SVG Export Plug-In . SVG Version: 6.00 Build 0)  -->
<!DOCTYPE svg PUBLIC "-//W3C//DTD SVG 1.1//EN" "http://www.w3.org/Graphics/SVG/1.1/DTD/svg11.dtd">
<svg version="1.1" id="图层_1" xmlns="http://www.w3.org/2000/svg" xmlns:xlink="http://www.w3.org/1999/xlink" x="0px" y="0px"
	 width="1024px" height="1024px" viewBox="0 0 1024 1024" enable-background="new 0 0 1024 1024" xml:space="preserve">
<path fill="#666666" d="M741.258,653.437L1024,938.874L938.876,1024L653.447,741.249c-73.247,53.063-153.713,79.563-241.585,79.563 c-113.497,0-210.463-40.313-291.022-120.75L0,820.813V469.438h351.396L203.181,617.687c56.717,56.688,126.277,85.126,208.682,85.126 c71.341,0,133.089-22.001,185.275-65.875c52.185-43.938,85.621-99.781,100.185-167.5h118.059 C808.067,535.344,783.382,596.688,741.258,653.437z M411.862,118.031c-71.373,0-133.621,22-186.714,65.906 c-53.092,43.938-86.966,99.719-101.59,167.469H5.531c14.625-98.844,60.373-182.156,137.276-249.844 C219.649,33.813,309.334-0.031,411.862,0c111.651,0,207.773,40.25,288.21,120.813L820.818,0v351.406H469.517l148.182-148.25 C561.014,146.406,492.39,118.031,411.862,118.031z"/>
</svg>
