<?xml version="1.0" encoding="utf-8"?>
<!-- Generator: Adobe Illustrator 15.0.0, SVG Export Plug-In . SVG Version: 6.00 Build 0)  -->
<!DOCTYPE svg PUBLIC "-//W3C//DTD SVG 1.1//EN" "http://www.w3.org/Graphics/SVG/1.1/DTD/svg11.dtd">
<svg version="1.1" id="图层_1" xmlns="http://www.w3.org/2000/svg" xmlns:xlink="http://www.w3.org/1999/xlink" x="0px" y="0px"  width="1024px" height="1024px" viewBox="0 0 1024 1024" enable-background="new 0 0 1024 1024" xml:space="preserve">
<path fill="#666666" d="M345,412.05h442v50H345V412.05z"/><path fill="#666666" d="M235,412.05h50v50h-50V412.05z"/><path fill="#666666" d="M345,554.5h342v50H345V554.5z"/><path fill="#666666" d="M235,554.5h50v50h-50V554.5z"/><path fill="#666666" d="M793.93,833.79L793.91,994h60.19l-0.02-160.21c-0.07-7.5,1.43-10.5,9.92-9.66l160-0.25v-60.1l-160,0.02 c-8.99,0.58-10.99-1.42-9.92-9.92l0.03-160h-60.2l0.02,160c-0.42,9.5-3.92,10-10.66,9.93l-159.26-0.02v60.1l159.26,0.25 C794.51,824.29,793.51,826.29,793.93,833.79z"/><path fill="#666666" d="M958.05,262.04c13.34,0,21.95,6.61,21.95,19.95v320.07c0,13.34-9.61,19.95-22.95,19.95 c-13.35,0-21.96-6.5-21.96-19.95v-295H141.96v591h495c13.34,0,19.96,8.61,19.96,21.96c0,13.34-6.62,24.95-14.96,24.95H101.05 c-28.31,0-51.47-13.54-66.54-28.5C19.54,901.61,13,883.47,13,860.15V141.08c0-23.32,7.54-49.46,22.51-64.54 c14.97-14.97,36.23-22.51,59.54-22.51h204c40.02,0,69.69,23.89,93.01,55.45c16.7,21.69,35.28,32.48,61.97,32.48h364.99 c23.32,0,41.46,6.54,56.54,21.5c14.97,14.97,21.51,34.23,21.51,57.54v41.02H958.05z M857.05,262.04v-40.02 c0-26.57-13.34-33.02-40.02-33.02H453.03c-40.02,0-67.69-22.78-91.01-54.45c-16.7-21.58-34.28-32.48-60.96-32.48h-204 c-26.68,0-40.02,13.34-40.02,40.02v716.07c0,26.69,13.35,34.02,40.02,39.02V287.11c0-18.34,6.61-24.95,19.95-24.95h740.05V262.04z" />
</svg>
