<?xml version="1.0" encoding="utf-8"?>
<!-- Generator: Adobe Illustrator 15.0.0, SVG Export Plug-In . SVG Version: 6.00 Build 0)  -->
<!DOCTYPE svg PUBLIC "-//W3C//DTD SVG 1.1//EN" "http://www.w3.org/Graphics/SVG/1.1/DTD/svg11.dtd">
<svg version="1.1" id="图层_1" xmlns="http://www.w3.org/2000/svg" xmlns:xlink="http://www.w3.org/1999/xlink" x="0px" y="0px"
	 width="1024px" height="1024px" viewBox="0 0 1024 1024" enable-background="new 0 0 1024 1024" xml:space="preserve">
<path fill="#666666" d="M903,35H121c-62.5,0-85,28.62-85,91.12V655c0,62.5,22.5,95,85,95h782c62.5,0,85-32.5,85-95V126.12
	C988,63.62,965.5,35,903,35z M935.5,624c0,54.69-4.69,65.69-59.38,65.69H147.88c-54.69,0-59.38-11-59.38-65.69V157.56
	c0-54.69,4.69-67.5,59.38-67.5h728.25c54.69,0,59.38,12.81,59.38,67.5V624z"/>
<path fill="#666666" d="M284.94,150.13c-69.06,0-125,55.94-125,125s55.94,125,125,125s125-55.94,125-125
	C409.94,206.13,354,150.13,284.94,150.13z M284.94,355.88c-44.56,0-80.75-36.13-80.75-80.75c0-44.63,36.13-80.75,80.75-80.75
	c44.56,0,80.75,36.13,80.75,80.75C365.69,319.75,329.56,355.88,284.94,355.88z"/>
<path fill="#666666" d="M111.07,708.62L147,734.5l273.44-273.44L693.88,734.5l35.93-25.87L420.44,399.25L111.07,708.62z"/>
<path fill="#666666" d="M984.19,407.06L820.13,243L510.75,552.37l35.93,25.87l273.44-273.43l164.06,164.06V407.06z"/>
<path fill="#666666" d="M286.94,791.09H75.06c-35.16,0-39.06,7.35-39.06,42.51v110.71C36,979.47,39.91,989,75.06,989h211.88
	c35.16,0,39.06-9.53,39.06-44.69V833.6C326,798.44,322.09,791.09,286.94,791.09z M286.47,916.88c0,30.76,6.11,28.2-24.65,28.2
	H100.18c-30.76,0-24.65,2.56-24.65-28.2v-55.59c0-30.76-6.11-29.22,24.65-29.22h161.64c30.76,0,24.65-1.54,24.65,29.22V916.88z"/>
<path fill="#666666" d="M617.94,791.09H406.06c-35.16,0-39.06,7.35-39.06,42.51v110.71c0,35.16,3.91,44.69,39.06,44.69h211.88
	c35.16,0,39.06-9.53,39.06-44.69V833.6C657,798.44,653.09,791.09,617.94,791.09z M617.47,916.88c0,30.76,6.11,28.2-24.65,28.2
	H431.18c-30.76,0-24.65,2.56-24.65-28.2v-55.59c0-30.76-6.11-29.22,24.65-29.22h161.64c30.76,0,24.65-1.54,24.65,29.22V916.88z"/>
<path fill="#666666" d="M948.94,791.09H737.06c-35.16,0-39.06,7.35-39.06,42.51v110.71c0,35.16,3.91,44.69,39.06,44.69h211.88
	c35.16,0,39.06-9.53,39.06-44.69V833.6C988,798.44,984.09,791.09,948.94,791.09z M948.47,916.88c0,30.76,6.11,28.2-24.65,28.2
	H762.18c-30.76,0-24.65,2.56-24.65-28.2v-55.59c0-30.76-6.11-29.22,24.65-29.22h161.64c30.76,0,24.65-1.54,24.65,29.22V916.88z"/>
</svg>
