<?xml version="1.0" encoding="utf-8"?>
<!-- Generator: Adobe Illustrator 15.0.0, SVG Export Plug-In . SVG Version: 6.00 Build 0)  -->
<!DOCTYPE svg PUBLIC "-//W3C//DTD SVG 1.1//EN" "http://www.w3.org/Graphics/SVG/1.1/DTD/svg11.dtd">
<svg version="1.1" id="图层_1" xmlns="http://www.w3.org/2000/svg" xmlns:xlink="http://www.w3.org/1999/xlink" x="0px" y="0px"
	 width="1024px" height="1024px" viewBox="0 0 1024 1024" enable-background="new 0 0 1024 1024" xml:space="preserve">
<g>
	<path fill="#666666" d="M209.21,893.27h-6.57c-6.58,0-18.8,2.9-21.72,11.14c-1.63,8.56,1.59,18.42,8.57,20.72l13.57,1
		c14.78-2.64,19.3-8.97,19.3-19.72C222.35,899.84,215.78,893.27,209.21,893.27z"/>
	<path fill="#666666" d="M130.32,834.11c0-6.57-6.57-13.15-13.14-13.15c-6.57,0-13.14,6.58-13.14,13.15
		c0,26.3,6.57,46.01,26.29,65.74c6.58,6.57,9.25,6.57,13.15,6.57c6.57,0,10.29-2.78,13.57-9.14c2.64-8.77-0.43-14.15-7-20.72
		C139.57,866.79,130.32,847.25,130.32,834.11z"/>
	<path fill="#666666" d="M728.52,709.21c-0.5-6.55-6.58-13.14-13.15-13.14c-6.57,0-13.14,6.57-13.14,13.14
		c0,26.3,5.57,47.07,26.3,65.74c5.16,4.65,7.57,6.57,14.14,6.57c6.57,0,9.39-3.21,13.57-10.14c2.45-8.87-1.43-12.15-8-18.72
		C736.5,742.83,729.6,723.5,728.52,709.21z"/>
	<path fill="#666666" d="M1013.18,584.31l-2-532.46c0-3.45-0.41-6.69-1.18-9.71c0.81-3.47,1.18-6.93,1.18-10.02
		c0-19.72-19.72-26.29-32.87-26.29L366.97,124.16c-15.52,0-22.9,12.22-25.33,23.83c-4.81,5.63-5.53,13.22-5.53,22.19l-1,500.36
		c-36.1-5.76-92.62-7.34-145.62-7.34C90.88,663.2,12,742.07,12,840.68s78.88,177.48,177.48,177.48
		c59.16,0,106.17-18.72,145.62-58.16c78.88-85.46,64.74-244.23,64.74-250.8l-1-411.2l548.6-100.82V544.6
		c-36.06-5.59-90.16-6.31-140.04-6.31c-98.6,0-177.48,78.88-177.48,177.48c0,98.6,78.88,180.49,177.48,180.49
		c52.59,0,108.17-16.72,141.04-56.16C1027.33,754.65,1013.18,590.88,1013.18,584.31z M288.09,912.99
		c-26.3,26.3-59.16,39.44-98.6,39.44c-65.74,0-118.32-52.58-118.32-118.32c0-65.74,52.58-115.33,118.32-115.33
		c49.8,0,111.38,8.79,145.68,10.04c1.06,3.25-2.1,8.36,0.41,11.11C334.57,783.02,330.9,864.07,288.09,912.99z M399.84,238.8v-61.77
		l545.6-104.48v64.32L399.84,238.8z M905,792.67c-26.3,26.29-57.16,38.44-96.6,38.44c-65.74,0-119.33-49.59-119.33-115.33
		c0-65.74,52.59-118.32,118.33-118.32c51.46,0,100.2,2.29,139.62,8.72c0.82,0.61,1.67,5.2,2.57,5.74
		C949.44,652.06,950.51,740.65,905,792.67z"/>
</g>
</svg>
