<?xml version="1.0" encoding="utf-8"?>
<!-- Generator: Adobe Illustrator 15.0.0, SVG Export Plug-In . SVG Version: 6.00 Build 0)  -->
<!DOCTYPE svg PUBLIC "-//W3C//DTD SVG 1.1//EN" "http://www.w3.org/Graphics/SVG/1.1/DTD/svg11.dtd">
<svg version="1.1" id="图层_1" xmlns="http://www.w3.org/2000/svg" xmlns:xlink="http://www.w3.org/1999/xlink" x="0px" y="0px"
	 width="1024px" height="1024px" viewBox="0 0 1024 1024" enable-background="new 0 0 1024 1024" xml:space="preserve">
<path fill="#666666" d="M902,37H122c-62.5,0-85,28.62-85,91.12V892c0,62.5,22.5,95,85,95h780c62.5,0,85-32.5,85-95V128.12
	C987,65.62,964.5,37,902,37z M934.5,861c0,54.69-4.69,65.69-59.38,65.69H148.88c-54.69,0-59.38-11-59.38-65.69V159.56
	c0-54.69,4.69-67.5,59.38-67.5h726.25c54.69,0,59.38,12.81,59.38,67.5V861z"/>
<g>
	<path fill="#666666" d="M871.8,468.49v0.11c-4.82,14.88-20.78,23.04-35.6,18.21c-14.89-4.83-23.04-20.81-18.22-35.7l0,0l-0.04-0.02
		c14.78-45.8,5.41-98.04-29.03-136.36c-34.49-38.32-85.33-52.97-132.3-42.96c-15.28,3.27-30.34-6.52-33.58-21.82
		c-3.24-15.3,6.5-30.38,21.78-33.65c66.04-14.09,137.62,6.46,186.11,60.4C879.43,330.6,892.5,404.05,871.8,468.49L871.8,468.49z"/>
	<path fill="#666666" d="M675.9,362.49v-0.02c-13.12,2.86-26.05-5.56-28.85-18.72c-2.84-13.19,5.59-26.19,18.71-28.99
		c32.19-6.88,67.07,3.11,90.65,29.37c23.67,26.28,29.97,62.05,19.88,93.45c-4.12,12.8-17.84,19.85-30.65,15.73
		c-12.8-4.15-19.79-17.94-15.65-30.74h-0.04c4.96-15.37,1.85-32.87-9.69-45.71C708.72,364.02,691.64,359.18,675.9,362.49z
		 M697.54,500.88c-10.42-3.13-17.54-5.28-12.08-18.98c11.76-29.75,12.98-55.42,0.23-73.72c-23.99-34.37-89.62-32.5-164.78-0.92
		c0-0.05-23.62,10.34-17.58-8.43c11.56-37.28,9.82-68.54-8.18-86.55c-40.8-40.95-149.28,1.52-242.29,94.79
		C183.19,476.97,142.73,551,142.73,615.06C142.73,737.53,299.35,812,452.57,812c200.84,0,334.5-117.01,334.5-209.97
		C787.07,545.91,739.87,514.04,697.54,500.88L697.54,500.88z M452.98,768.1c-122.25,12.12-227.8-43.32-235.73-123.83
		c-7.95-80.46,84.77-155.56,207.02-167.68c122.27-12.13,227.8,43.32,235.73,123.78C667.92,680.92,575.25,755.97,452.98,768.1z"/>
	<path fill="#666666" d="M465.19,538.56c-58.17-15.19-123.94,13.88-149.21,65.28c-25.74,52.47-0.85,110.66,57.92,129.69
		c60.9,19.7,132.66-10.46,157.61-67.08C556.13,611.14,525.41,554.15,465.19,538.56z M420.77,672.45
		c-11.83,18.92-37.15,27.22-56.21,18.47c-18.8-8.56-24.36-30.56-12.53-49c11.68-18.38,36.15-26.55,55.08-18.62
		C426.27,631.51,432.38,653.32,420.77,672.45z"/>
</g>
</svg>
