<?xml version="1.0" encoding="utf-8"?>
<!-- Generator: Adobe Illustrator 15.0.0, SVG Export Plug-In . SVG Version: 6.00 Build 0)  -->
<!DOCTYPE svg PUBLIC "-//W3C//DTD SVG 1.1//EN" "http://www.w3.org/Graphics/SVG/1.1/DTD/svg11.dtd">
<svg version="1.1" id="图层_1" xmlns="http://www.w3.org/2000/svg" xmlns:xlink="http://www.w3.org/1999/xlink" x="0px" y="0px"
	 width="1024px" height="1024px" viewBox="0 0 1024 1024" enable-background="new 0 0 1024 1024" xml:space="preserve">
<path fill="#666666" d="M971.91,90.35c-18.21,0.17-36.57,0.24-54.97,0.24c-18.43,0-37-0.07-55.72-0.24
	c-18.69-0.17-39.22-0.57-61.51-1.21l-4.38,25.67l35.54,13.09c10.96,3.2,16.47,8.2,16.47,14.99c0,5.53-2.98,14.49-8.96,26.89
	c-6.03,12.44-13.8,28.2-23.5,47.21L675.37,489.76l-26.06,52.01l-0.29-52.01L598.63,83.77l-59.42,4.38L324.09,490.26l-26.47,51.51
	l-0.83-51.51l-33.95-275.17c-1.65-14.21-2.91-26.13-3.88-35.85c-0.96-9.7-1.46-17.12-1.46-22.29c0-10.33,2.17-17.26,6.54-20.84
	c4.38-3.53,9.92-6.44,16.72-8.72l47.01-13.57l2.41-24.7c-56.18,0.96-106.56,1.45-151.15,1.45c-23.56,0-48.15-0.07-73.64-0.24
	c-25.51-0.15-51.53-0.55-78-1.21L24,113.81l51.35,13.57c7.75,1.96,13.83,4.62,18.17,8.01c4.33,3.38,7.74,7.7,10.16,12.83
	c2.42,5.18,4.19,11.23,5.34,18.17c1.15,6.94,2.35,14.93,3.63,23.96l77.01,582.32l66.68-5.34l209.29-388.52l23.08-46.69l1.83,46.69
	l52.34,393.86l89.09-5.34l298.14-584.25c2.89-5.51,6.06-10.96,9.44-16.47c3.38-5.5,7.3-10.68,11.64-15.5
	c4.34-4.84,9.41-9.22,15.24-13.09c5.84-3.88,12.76-6.94,20.83-9.2l33.78-15.02l2.95-24.67C1007.52,89.78,990.15,90.18,971.91,90.35z
	"/>
<path fill="#CC6666" d="M945.43,838.93l-28.58,28.59l-28.3,28.3L860.8,867.8c-31.63-32.19-42.73-38.56-66.59-38.56
	c-23.87,0-34.96,6.38-66.32,38.56l-27.75,27.78l-30.79-29.96c-33.29-32.48-40.23-36.36-66.59-36.36
	c-20.81,0.28-33.29,7.77-63.82,38.56l-24.33,24.58l-3.43,3.42l-27.75-28.02c-31.63-32.19-42.73-38.56-66.59-38.56
	c-23.87,0-34.96,6.38-66.32,38.56l-27.75,27.78l-30.79-29.96c-33.29-32.48-40.23-36.36-66.59-36.36
	c-20.81,0.28-33.29,7.77-63.82,38.56l-27.75,28.03l-27.75-27.76L78.3,840.33l-16.64,16.65l-16.38,16.65l27.47,28.02
	c15.26,15.54,31.64,30.53,36.08,33.3c9.44,5.83,32.19,7.21,44.69,2.22c4.43-1.4,21.64-16.38,38.56-33.3
	c18.03-17.76,33.02-30.24,36.34-30.24c3.04,0,17.19,11.92,34.4,29.42c16.09,16.09,32.45,31.07,36.62,33.3
	c9.44,4.99,33.02,4.99,44.68,0c5-2.22,21.92-17.21,38.02-33.3c18.04-18.32,31.08-29.42,34.68-29.42c3.51,0,15.99,10.54,33.3,28.01
	l-0.01,0.01c15.26,15.54,31.64,30.53,36.08,33.3c7.06,4.36,21.57,6.23,33.66,4.81c5.79-0.51,10.96-1.65,14.33-3.43
	c4.15-2.22,37.23-34.37,37.23-34.37c17.14-16.73,31.18-28.32,34.38-28.32c3.04,0,17.2,11.92,34.4,29.42
	c16.09,16.09,32.45,31.07,36.62,33.3c9.44,4.99,33.02,4.99,44.68,0c5-2.22,21.92-17.21,38.02-33.3
	c18.04-18.32,31.08-29.42,34.68-29.42s16.64,11.1,34.67,29.39c16.09,16.09,33.02,31.08,38.02,33.31c11.64,4.99,35.23,4.99,44.67,0
	c4.16-2.22,20.81-17.5,37.45-34.14l29.7-29.96l-16.65-16.65L945.43,838.93z"/>
</svg>
